# xmcd CD database file
#
# Track frame offsets:
#	182
#	28685
#	41847
#	55172
#	72252
#	88880
#	104832
#	127232
#	143145
#	154585
#
# Disc length: 2302 seconds
#
# Revision: 2
# Processed by: cddbd v1.4PL0 Copyright (c) Steve Scherf et al.
# Submitted via: CDex 1.40Beta9
#
DISCID=9508fc0a
DTITLE=Astor Piazzolla - Love Tanguedia
DYEAR=1989
DGENRE=Tango
TTITLE0=Astor Piazzolla - Instrumental - Regreso Al Amor (Return To Love)
TTITLE1=Astor Piazzolla - Instrumental - Tristeza, Separación (Sadness, Separation)
TTITLE2=Astor Piazzolla - Instrumental - Los Sueños (The Dreams)
TTITLE3=Astor Piazzolla - Instrumental - Tanguedia III
TTITLE4=Astor Piazzolla - Instrumental - Milonga Loca (Crazy Milonga)
TTITLE5=Astor Piazzolla - Instrumental - Oblivión
TTITLE6=Astor Piazzolla - Instrumental - Duo De Amor (Love Duet)
TTITLE7=Astor Piazzolla - Instrumental - Ausencias (Absences)
TTITLE8=Astor Piazzolla - Instrumental - Mimuki
TTITLE9=Astor Piazzolla - Fernando E. Solanas - Vuelvo Al Sur (I Return To The South)
EXTD=Tracks 1, 2, 3 and 10 rec'd with his Contemporary Tango Quintet in Buenos Aires, 12/87.\n\nTracks 4, 5, 7, 8 and 9 rec'd with his Contemporary Tango Quintet in Paris, 12/84\n\nTrack 6 from the film "EnricoIV", 1984 YEAR: 1989 ID3G: 113
EXTT0=
EXTT1=
EXTT2=
EXTT3=
EXTT4=
EXTT5=
EXTT6=
EXTT7=
EXTT8=
EXTT9=
PLAYORDER=
